# xmcd
#
# Track frame offsets: 
#        150
#        17352
#        34846
#        58871
#        75056
#        96413
#        115593
#        131698
#        158325
#        175858
#        194188
#        221191
#        242039
#        264664
#        291677
#
# Disc length: 4214 seconds
#
# Revision: 0
# Processed by: cddbd v1.5.2PL0 Copyright (c) Steve Scherf et al.
# Submitted via: ExactAudioCopyFreeDBPlugin 1.0
#
DISCID=d510740f
DTITLE=Blues-Rock Collection (Various Artists) - Gekko Musik 16 - Quee
DTITLE=rbeet
DYEAR=2013
DGENRE=Blues-Rock
TTITLE0=Robert Plant - If I Were A Carpenter
TTITLE1=Graham Parker - Hey Lord, Don´t Ask Me Questions
TTITLE2=Lee Clayton - Ride Alone
TTITLE3=Roachford - This Generation
TTITLE4=Laid Back - Baker Man
TTITLE5=Lou Reed - Take A Walk On The Wild Side
TTITLE6=Ellison, Beggs and Howard - Big Bubbles, No Troubles
TTITLE7=Roachford - Kathleen
TTITLE8=Manfred Mann´s Earthband - Blinded By The Light
TTITLE9=David and David - Swimming In The Oceann
TTITLE10=Monster Magnet - Space Lord
TTITLE11=Lee Clayton - Tequila Is Additive
TTITLE12=Robert Plant - Big Log
TTITLE13=Seal - Crazy
TTITLE14=Fleetwood Mac - Edge Of Seventeen
EXTD=
EXTT0=
EXTT1=
EXTT2=
EXTT3=
EXTT4=
EXTT5=
EXTT6=
EXTT7=
EXTT8=
EXTT9=
EXTT10=
EXTT11=
EXTT12=
EXTT13=
EXTT14=
PLAYORDER=
